# xmcd
#
# Track frame offsets:
#	150
#	17477
#	34982
#	51884
#	67755
#	82026
#	98984
#	112121
#	126639
#	143075
#	158358
#	176760
#	200581
#	218420
#
# Disc length: 3053 seconds
#
# Revision: 0
# Processed by: cddbd v1.5.2PL0 Copyright (c) Steve Scherf et al.
# Submitted via: audiograbber 1.83.01
#
DISCID=c10beb0e
DTITLE=Feelin`Good Blues Band - Perfect Day For Feelin`Blue
DYEAR=2017
DGENRE=Blues
TTITLE0=Ever Since My Baby`s Been Gone
TTITLE1=Don`t Come Back
TTITLE2=I Can`t Help It
TTITLE3=I`m Not Ambitious
TTITLE4=Treat Me Wrong, Treat Me Right
TTITLE5=Boogie Woogie Mama
TTITLE6=Phone Operator
TTITLE7=You Went Away
TTITLE8=Down In Yukatan
TTITLE9=Candyman
TTITLE10=I`mYours
TTITLE11=Feel So Good
TTITLE12=I`m So Glad
TTITLE13=Big Old Dog Blues
EXTD=
EXTT0=
EXTT1=
EXTT2=
EXTT3=
EXTT4=
EXTT5=
EXTT6=
EXTT7=
EXTT8=
EXTT9=
EXTT10=
EXTT11=
EXTT12=
EXTT13=
PLAYORDER=
